<?xml version="1.0" encoding="UTF-8"?>
<svg version="1.1" viewBox="0 0 1600 1600" width="1280" height="1280" xmlns="http://www.w3.org/2000/svg">
<path transform="translate(0)" d="m0 0h1600v1600h-1600z" fill="#FEFEFE"/>
<path transform="translate(1396,503)" d="m0 0 2 1-15 23-8 12-13 19-8 12-13 18-12 17-10 13-8 11-10 13-13 17-8 10-11 14-12 14-9 11-12 14-10 11-8 10-7 7-1 2h-2l-2 4-15 16-5 6h-2l-2 4-53 53-8 7-9 9-8 7-4 2v2l-11 9-13 12-10 8-13 11-14 11-18 14-20 15-17 12-33 22-21 13-18 11-11 6-33 17-29 13-29 9-40 10-34 6-26 3-19 1h-22l-23-2-26-5-20-7-21-11-11-9-9-9-10-15-11-16-15-22-11-16-26-38-8-12-18-26-17-25-13-19-15-22 3-1 17 10 31 15 28 11 33 10 24 6 31 6 29 4 32 3 19 1h43l36-2 28-3 4 5 15 26 12 21 5-5 16-24 8-11 26-38 5-7 15-4 29-8 33-12 23-9 49-23 23-12 18-10 28-16 13-8 24-15 17-11 24-16 16-11 17-12 18-13 19-14 13-10 17-13 14-11 16-13 14-11 13-11 11-9 26-22h2v-2l11-9 14-13 8-7z" fill="#66973B"/>
<path transform="translate(100,348)" d="m0 0 3 1 7 8 10 11 8 7 8 8 11 9 11 10 17 13 19 14 16 11 16 10 18 11 20 12 28 15 27 14 28 13 27 12 29 12 34 13 25 9 16 5 23 4 28 7 24 9 17 9 11 8 10 9 8 10 8 17 11 15 8 12 14 20 13 19 12 17 13 19 14 20 13 19 14 20 11 16v2h-25l-60-3-53-5-48-7-48-10-25-7-33-11-26-11-16-8-16-9-16-12-11-9-9-11-244-366z" fill="#71AA42"/>
<path transform="translate(1139,885)" d="m0 0v3l-17 25-13 19-11 16-13 19-11 16-8 12-10 14-14 21-11 16-16 23-8 12-39 57-16 23-16 24-14 20-15 22-11 16-16 23-10 15-26 38-11 16-8 12-12 17-9 14-3-1-12-18-15-22-10-15-12-17-7-11-10-14-12-18-15-22-16-24-8-11-32-48-12-17-10-15-7-10-1-3 16 1 29 2h32l36-3 28-4 29-6 19-5 29-9 25-9 15-6 13-6 23-11 20-10 24-14 20-12 10-7 12-8 14-10 19-14 11-9 14-11 10-9 8-7 10-9 12-11 5-5h2l1-3h2v-2l5-5h2l2-4 15-15z" fill="#548033"/>
<path transform="translate(1500,347)" d="m0 0v3l-16 17-12 13-11 11-4 5-4 4h-2l-2 4-44 44h-2v2l-8 7-7 7h-2v2l-8 7-6 6h-2v2l-8 7-13 12-9 8h-2v2l-11 9-10 9-11 9-14 12-11 9-16 13-13 10-18 14-19 14-18 13-19 13-11 8-26 17-19 12-23 14-19 11-22 12-42 22-29 13-19 8-35 13-23 7h-3l2-5 24-34 14-20 12-17 10-14 13-18 11-16 10-14 36-51 10-14 2-3 44-15 18-7 17-6 31-12 11-5 29-12 60-27 16-8 17-8 15-8 16-8 27-14 22-12 23-13 24-14 20-12 21-13 22-14z" fill="#71AA42"/>
<path transform="translate(1500,347)" d="m0 0v3l-13 14-5 2-2-4 4-1 1-4z" fill="#6EA540"/>
<path transform="translate(1139,885)" d="m0 0v3l-11 16-3-1-7 7v-3l16-16z" fill="#6A9F3E"/>
<path transform="translate(100,348)" d="m0 0 3 1 7 8 6 6-1 5-3-1-12-18z" fill="#70A841"/>
<path transform="translate(622,1112)" d="m0 0 16 1 11 1v1h-20l-2 2 2 5-4-4z" fill="#6A9F3E"/>
<path transform="translate(1396,503)" d="m0 0 2 1-5 7-4 1-4 4-2-1z" fill="#70A842"/>
<path transform="translate(910,766)" d="m0 0h2v2h5v2l-10 2 2-5z" fill="#6EA540"/>
<path transform="translate(378,743)" d="m0 0 6 2 5 3v2l2 1-6-1-6-4z" fill="#6A9E3E"/>
<path transform="translate(1189,514)" d="m0 0h6l-2 2-10 4-5 1 4-2v-2z" fill="#6A9D3D"/>
<path transform="translate(725,812)" d="m0 0 3 1 2 5h-14v-1h9z" fill="#72AB43"/>
</svg>
