<?xml version="1.0" encoding="UTF-8"?>
<svg version="1.1" viewBox="0 0 1024 1024" width="1280" height="1280" xmlns="http://www.w3.org/2000/svg">
<path transform="translate(478,274)" d="m0 0 6 2 11 8 9 7 13 12 9 10 12 17 10 17 9 19 7 19 6 23 4 21v7l14 1 5 1v1l-10 1h-17v2h7l4 2-3 1-12 1 19 3v2h-37l-21-1-1-2v-12l-10-16-10-15-17-26-23-35-8-12h-4v2h-2v2h-2v2h-2v2h-2v2h-2l-2 4-8 7-29 29-1 2h-2l-2 4-4 2v2h-2l-2 4-4 2-2 4-11 11 7-6 74-74 3 3 10 15 25 38 28 42v16h-13l-1-16-18-27-10-16-10-15-10-16-6-9v-2l-8 7-68 68-59 6h-10l-3-5 1-2-4 1-11 9-16 11-11 7-6 3-15 8-27 11-31 10-31 8h-3l3 3 22 12 19 12 20 12 17 10 27 14 19 8 21 6 15 3 3 2v5l-1 1h-9l-23-6-21-8-30-14-21-12-15-9-29-17-16-8-20-8-9-2h-12l-3 8-12 37-5 21-3 19-3 5-3 1-6-3-2-3v-14l6-25 13-41 2-5h-7l-5-3v-6l4-3 12-2 9-29 6-22 2-20 9-7 5 1 2 4-1 12-10 40-6 22h25l24-4 21-5 26-8 24-10 19-9 24-14 13-10 5-4 6-9 1-7-3-6-7-4-14-4-14-2-19-1h-13l-24 1-31 4-26 5-26 7-27 9-14 6-7 1-2-1 1-6 19-9 19-7 31-8 32-6 32-4h52l21 3 12 3 12 6 7 8 1 3v7l1-7-4-8-6-5-16-7-16-4-28-4-28-2v-2l41-7 85-14h4v-31l1-3 18-6 9 1 10 3v29l41-7 24-4h7l11 17 15 23 38 58 4 6 2-3 4-14 2-17-1-20-4-17-7-20-9-19-12-19-8-11-9-11zm53 77m1 1 1 5 1-3zm2 5 1 5 14 38 7 24 2 10 4-4-2-11-8-23-12-29-5-10zm-225 52-2 4 3-2zm-3 4m54 1v1h8v-1zm-8 1v1h6v-1zm-11 1v1h8v-1zm-9 1v1h8v-1zm-10 1v1h8v-1zm-10 1v1h9v-1zm-8 1v1h8v-1z" fill="#244E16"/>
<path transform="translate(207,374)" d="m0 0h52l21 3 12 3 12 6 7 8 1 3v7l-3 6-2 5 2 2-3 1 6 1v1l-6 1-3 1v-2l-4 1-11 9-16 11-11 7-6 3-15 8-27 11-31 10-31 8h-3l3 3 22 12 19 12 20 12 17 10 27 14 19 8 21 6 15 3 3 2v5l-1 1h-9l-23-6-21-8-30-14-21-12-15-9-29-17-16-8-20-8-9-2h-12l-3 8-12 37-5 21-3 19-3 5-3 1-6-3-2-3v-14l6-25 13-41 2-5h-7l-5-3v-6l4-3 12-2 9-29 6-22 2-20 9-7 5 1 2 4-1 12-10 40-6 22h25l24-4 21-5 26-8 24-10 19-9 24-14 13-10 5-4 6-9 1-7-3-6-7-4-14-4-14-2-19-1h-13l-24 1-31 4-26 5-26 7-27 9-14 6-7 1-2-1 1-6 19-9 19-7 31-8 32-6z" fill="#99B458"/>
<path transform="translate(364,304)" d="m0 0 9 1 10 3v29l41-7 24-4h5l-3 5h-2v2l-4 4h-2v2h-2v2l-8 7-12 12h-2l-2 4-6 6h-2v2h-2v2h-2v2h-2v2h-2v2h-2v2h-2l-2 4-6 5-6 7h-2v2l-11 11-4 1h-13l-7-1-2-5-4-4v-2h-2l-6-11-11-12-2-5-2-4-4-1-8-10v-2h-2v-2l-3-2 42-7h4v-31l1-3z" fill="#7EAA0E"/>
<path transform="translate(878,374)" d="m0 0 5 1 1 1-1 8-10 27-10 32-8 32-8 37-7 40v4l12-18 11-18 5-13 8-11 8-6 8-4 6-1 6 2 2 3-1 7-6 8-7 7-15 10-4 2v12l10-1 12-5 10-6 15-13 4-3 2-14 4-6 7-4 9 1 5 6v9l-4 1-3-9-6-1-3 3v10l4 21 1 2 20-12 14-8 3 1-1 4-23 14-11 8-1 1-1 17-4 13-6 9-8 8-10 5h-9l-5-5 1-10 6-12 9-11 9-9 5-4v-10l-3-10-12 10-17 11-16 6h-9l-5-3-3-5-1-2-15 24-7 10-6 2-5-5 1-17 6-41 5-22v-3l-10 22-12 22-10 14-4 5-10 8-3 1h-7l-5-4-2-4-1-14 2-14 5-16 8-15 9-10 8-4h8l5 4 3 6v8l-2 2-4-1-4-8-5 1-5 4-8 12-6 15-2 8v21l6-3 9-10 9-13 10-17 9-19 15-36 14-36 11-28 4-7zm15 121-10 7-7 10 2 1 11-8 7-8v-2zm36 48-13 13-6 8-5 9-1 5 3 3 6-1 6-4 7-10 4-9 1-4v-10z" fill="#476568"/>
<path transform="translate(445,484)" d="m0 0 5 1 3 3 1 2v8l-2 5-4 2-1-11-6 3-9 12-5 10-3 10-1 13 11-4 14-9 16-13 5-4 6-10 9-10 12-6 7-1 5 3 1 1v7l-6 9-9 8-14 9-3 2-1 9 1 2 5 1 8-2 16-8 13-11 9-7 1-12 3-6 6-5 2-1h8l5 4 2 5v6l-1 2-4-1-2-8-6-1-4 4 1 11 4 20h3l9-6 15-9 6-3h5l-1 4-15 9-14 9-6 4-1 16-4 14-6 10-8 8-10 5h-9l-5-4v-8l4-10 9-13 16-16h2l-3-17-2-3-10 9-15 10-13 6-7 2h-9l-6-5-2-6v-8l-15 11-17 11-6 3h-7l-5-3-2-3v-11l2-9-8 6-9 9-10 5-7-1-4-5v-13l-8 7-10 8-3 2h-7l-5-5-1-8 1-10h-2l-2 4-11 13-10 10-5 3h-6l-4-3-1-3v-8l9-19 8-11 7-8 10-7 8-3 7 1 5 5v7l-3 16v14l1 2 5-1 12-11 10-11 5-12 5-8 1-1 7 1-1 8-8 21-4 13 1 4 5-1 9-8h2v-2l16-14 8-12 9-10zm52 11-7 4-7 7-3 5v2l5-2 10-8 5-7zm-152 2-9 6-9 9-8 13-4 9v2h3v-2l4-2 11-12 10-14 3-6zm188 46-8 7v2h-2l-8 10-6 10-1 7 3 2 6-1 6-4 6-9 4-8 2-7v-9z" fill="#9BB55A"/>
<path transform="translate(478,274)" d="m0 0 6 2 11 8 9 7 13 12 9 10 12 17 10 17 9 19 7 19 6 23 4 21v7l14 1 5 1v1l-10 1h-17v2h7l4 2-3 1-12 1 19 3v2h-37l-9-1-12-18 5-16 2-11 1-16-2-18-5-19-10-24-10-18-10-15-13-16zm53 77m1 1 1 5 1-3zm2 5 1 5 14 38 7 24 2 10 4-4-2-11-8-23-12-29-5-10z" fill="#197140"/>
<path transform="translate(794,366)" d="m0 0 6 1 3 3v7l-6 5-4-1v-5l-9 2-17 9-17 12-16 12-14 12-10 9-15 14-18 18-7 8-9 10-9 11-12 15-13 18-13 20-10 17-7 13-3 3h-6l-2-3v-15l8-52 4-31 1-25-4 2-3 8-5-1-1-1 1-7 3-6h2v-2l4-2h7l5 3 3 6 1 11-6 59-3 23 12-19 14-20 10-13 13-16 18-20 29-29 11-9 10-9 30-23 18-11 19-9z" fill="#456367"/>
<path transform="translate(347,345)" d="m0 0 3 1v3l2 1v2l4 2 7 11 8 6 5 10 1 3h2l3 6 3 2-5 5h-2v2l2 1-11 11-4 1h-13l-7-1-2-5-4-4v-2h-2l-6-11-11-12-2-5-2-4-4-1-8-10v-2h-2v-2l-3-2 29-5z" fill="#5C840A"/>
<path transform="translate(293,352)" d="m0 0h10l-1 3h2l4 6 5 6 3 1 4 5 2 5 10 11 5 8v3h2v2l3 1 3 5 5 1 2 4-7 1-1 4-10-1v-2l-23 2-5-1 4-7 3-7-1-8-4-6-5-4-16-7-16-4-28-4-28-2v-2l41-7z" fill="#436811"/>
<path transform="translate(703,486)" d="m0 0h11l3 4-1 8-7 9-14 11-9 5h-2v11l1 1h9l11-4 11-7 14-12 7-5 7-17 2-2 4 1 2 3-1 7-3 10 11-13 7-8 3-2 5 1 3 5-1 9-5 13-2 5-5-5 1-9 3-9-4 2-12 16-12 20-8 15-5-1-1-2 1-9 6-18-16 12-14 8-12 4h-9l-5-3-3-6v-13l4-12 7-10 4-5 9-6zm3 8-9 6-8 9-1 4 7-4 9-7 4-7z" fill="#496869"/>
<path transform="translate(555,260)" d="m0 0 3 3 6 27 2 14v39l-2 11v5l13-18 12-14 9-9 11-8 6-2-2 5-7 8-12 17-10 18-7 16-5 18-2 10-2-1-3-12 1-8 4-10-5 10h-3l-6-17-1-2 1-17 2-28v-11l-5 40-2 5-4-5-1-2v-7l5-19 3-22 1-21zm7 100m11 2m-1 1 1 2z" fill="#297747"/>
<path transform="translate(364,304)" d="m0 0 9 1 10 3v30l-9 1-6 2-11 2h-11v-33z" fill="#43690E"/>
<path transform="translate(555,260)" d="m0 0 3 3 6 27 2 14v39l-3 19-3 8-2-3-3-7 1-17 2-28v-11l-5 40-2 5-4-5-1-2v-7l5-19 3-22 1-21z" fill="#9EB760"/>
<path transform="translate(628,359)" d="m0 0 2 1-12 14-13 16-11 15-10 15-7 12-2 1-1-7 3-10-4 2-1-5 9-13 8-10 8-7 5-6 14-11 9-6z" fill="#9EB760"/>
<path transform="translate(453,326)" d="m0 0h2l11 17 15 23 38 58 12 19 4 7h-12l-1-2v-12l-10-16-10-15-17-26-23-35-8-12h-4v2h-2v2h-2v2h-2v2h-2v2h-2l-2 4-8 7-29 29-1 2h-2l-2 4-4 2v2h-2l-2 4-4 2-2 4-11 11h-2l2-4 4-5 3-4h2v-2l6-5 6-7 4-4h2v-2h2v-2h2v-2h2v-2h2v-2h2v-2l8-7 22-22h2v-2h2v-2l4-4h2v-2h2l2-4z" fill="#3A5F34"/>
<path transform="translate(490,360)" d="m0 0 6 2 11 8 5 5 11 12 6 10 1 7-1 3-3-1-4-6-1-3v3l7 15-2 7h-2l-4-9-10-19-12-20-8-12z" fill="#9CB65D"/>
<path transform="translate(367,305)" d="m0 0 10 1 6 2v30l-16 1z" fill="#18430C"/>
<path transform="translate(587,623)" d="m0 0h7l15 25 1-25h5v33h-7l-11-18-4-6-1 24-3 1-2-1z" fill="#353E30"/>
<path transform="translate(703,623)" d="m0 0h21l6 4 1 9-4 5-2 1 2 6 5 8-4 1-4-4-6-9-10-1v13l-3 1-2-1zm5 4v11l1 1h12l4-2 1-6-4-4z" fill="#232D2B"/>
<path transform="translate(141,623)" d="m0 0h21l6 4 1 8-3 5-3 2 2 6 5 8-4 1-4-4-6-9-10-1v13h-5zm5 4v11l1 1h11l5-2 1-7-4-3z" fill="#2F3632"/>
<path transform="translate(555,622)" d="m0 0h7l8 4 4 6 1 3v9l-4 8-5 4-4 1h-8l-7-3-4-5-2-8 1-9 5-7zm-2 5-5 5-1 2v12l5 6 9 1 5-3 3-4 1-9-3-7-4-3z" fill="#313731"/>
<path transform="translate(323,623)" d="m0 0h21l5 3 2 5-1 7-6 5 7 11v2l-3 1-5-5-5-8-10-1v13h-5zm5 4v12h12l5-3 1-5-4-4z" fill="#202B27"/>
<path transform="translate(899,622)" d="m0 0 9 1 6 3 4 7v13l-5 8-7 3h-9l-6-3-5-6-1-3v-11l3-6 6-5zm-3 5-5 5-1 3v9l3 6 6 3h6l6-4 2-4v-11l-3-5-4-2z" fill="#2B342F"/>
<path transform="translate(182,623)" d="m0 0h17l8 4 4 7v10l-4 8-6 4h-19zm5 4v25h12l5-4 2-5v-7l-2-5-4-3-3-1z" fill="#202A27"/>
<path transform="translate(243,623)" d="m0 0h6l14 22 2 3 1-25h4v33l-3 1-4-2-11-18-4-6-1 25h-4z" fill="#181F1F"/>
<path transform="translate(931,623)" d="m0 0h6l12 19 4 6 1-25h4v33l-3 1-4-2-13-21-2-3-1 25-2 1-2-1z" fill="#171F1D"/>
<path transform="translate(284,623)" d="m0 0h25v4h-20v10h19v4h-19v11h21v4h-26z" fill="#273129"/>
<path transform="translate(638,622)" d="m0 0 10 1 6 5-1 3-5-1v-2l-10-1-4 2 1 5 15 5 4 3 1 8-4 5-5 2h-10l-8-4-1-5 4-1 3 4 3 1h8l4-1-1-7-16-5-4-5 1-7 3-3z" fill="#2C342D"/>
<path transform="translate(744,623)" d="m0 0h5l1 25 2 3 8 1 5-3 1-7v-19h5l1 1v22l-3 7-7 4h-9l-7-4-2-4z" fill="#3B3F3D"/>
<path transform="translate(838,622)" d="m0 0 9 1 6 4 2 4-5 1-5-4h-9l-5 5-1 9 3 7 5 3 8-1 5-5 4 1-2 5-5 4-3 1h-9l-6-3-5-6-1-4v-9l3-7 4-4z" fill="#323A32"/>
<path transform="translate(796,622)" d="m0 0h7l7 3 4 4-1 3-5-1-4-3h-9l-4 3-2 6 1 9 5 5 7 1 6-2 2-4 4 1-1 4-6 5-3 1h-9l-6-3-4-4-2-7v-7l3-8 5-4z" fill="#32392F"/>
<path transform="translate(393,623)" d="m0 0h6l4 9 9 22v2l-3 1-3-3-2-7-15 1-4 8-3 1-2-2zm3 6-4 9-1 5h11l-3-9-2-5z" fill="#2F3733"/>
<path transform="translate(112,623)" d="m0 0h5l4 8 9 22-1 4-4-1-3-9-15 1-3 8-4 1-1-4 12-29zm2 5-5 12v3h11l-3-10-2-5z" fill="#2B332F"/>
<path transform="translate(514,622)" d="m0 0 10 1 6 4 1 4-5 1-4-4h-10l-4 4-1 3v9l3 6 5 2 7-1 5-5 4 1-1 5-6 4-3 1h-8l-8-4-4-7v-12l4-8 5-3z" fill="#303731"/>
<path transform="translate(445,423)" d="m0 0h15l1 1v19l-1 1h-15l-1-1v-19z" fill="#275016"/>
<path transform="translate(445,400)" d="m0 0h15l1 1v19l-1 1h-15l-1-1v-19z" fill="#254D17"/>
<path transform="translate(426,400)" d="m0 0h15l1 2-1 18-1 1h-14l-1-1v-19z" fill="#204915"/>
<path transform="translate(426,423)" d="m0 0h15l1 18-1 3h-15l-1-1v-19z" fill="#1D4711"/>
<path transform="translate(256,358)" d="m0 0h8l-4 5 2 4 6 2v2l2 1-11-1-29-3-15-1v-2z" fill="#244F17"/>
<path transform="translate(441,623)" d="m0 0h5l9 14 4-5 6-9h5l-2 5-9 14-1 14-3 1-2-1-1-14-11-17z" fill="#262F2D"/>
<path transform="translate(665,623)" d="m0 0h27v4h-11v29h-5v-29h-11z" fill="#182629"/>
<path transform="translate(77,623)" d="m0 0h11l1 1v24l-3 7-4 2-9-1-4-5 1-4 4 1 1 3 5 1 2-1 1-3 1-21h-6z" fill="#2E3432"/>
<path transform="translate(364,304)" d="m0 0h6l-3 1v21l-2 4v-5h-2l-5-7-4-4v-3l-3 1-3-3z" fill="#7EAA0C"/>
<path transform="translate(346,310)" d="m0 0 8 1 2 5 5 5 2 4 4 1-1 12h-2v-2h-2l-14-18z" fill="#5C840A"/>
<path transform="translate(867,623)" d="m0 0h5v33l-3 1-2-1z" fill="#182629"/>
<path transform="translate(364,623)" d="m0 0h5v33h-5z" fill="#373E39"/>
<path transform="translate(224,623)" d="m0 0h4v33l-3 1-2-1v-32z" fill="#202613"/>
<path transform="translate(518,427)" d="m0 0 4 1 7 12 6 9v1h-12l-1-2v-12l-4-7z" fill="#194512"/>
<path transform="translate(402,376)" d="m0 0 2 1-2 4-2 3h-2l-2 4-4 2v2h-2l-2 4-4 2-2 4-11 11h-2l2-4 4-5 3-4h2v-2l6-5 6-7 4-4h2v-2h2v-2h2z" fill="#456928"/>
<path transform="translate(494,387)" d="m0 0 4 5 21 32 1 3-3 1-13-20-11-17z" fill="#426D34"/>
<path transform="translate(468,351)" d="m0 0 4 1 22 34v4h-2l-14-22-10-15z" fill="#316025"/>
<path transform="translate(448,326)" d="m0 0h5l-3 4h-10l-11 2-24 4h-10v-1l41-7z" fill="#A9BF71"/>
<path transform="translate(346,327)" d="m0 0 3 1 3 5 4 3v5l-6 2h-4z" fill="#103B09"/>
<path transform="translate(433,346)" d="m0 0h2l-2 4-28 28-2-1 1-3h2v-2h2v-2l8-7 5-5z" fill="#2C550C"/>
<path transform="translate(400,472)" d="m0 0h6l2 3-2 4-2 1h-7l-1-4z" fill="#A0B964"/>
<path transform="translate(334,414)" d="m0 0m-8 1h8v2l-14 2h-15l1-2 6-1z" fill="#1A4710"/>
<path transform="translate(375,404)" d="m0 0m-1 1m-1 1m-1 1m-1 1m-1 1m-1 1m-4 1h4v2l-12 2-13 1 1-3z" fill="#16430C"/>
<path transform="translate(453,326)" d="m0 0h2l-1 5-4 1v2h-2v2h-2v2h-2v2h-2v2h-2l-2 4-3 1v-3l3-3h2v-2h2v-2l4-4h2v-2h2l2-4z" fill="#3F632B"/>
<path transform="translate(494,387)" d="m0 0 4 5 6 9-2 4-9-14z" fill="#457030"/>
<path transform="translate(364,304)" d="m0 0h6l-3 1v12l-2-3v-7l-13 3-2 1-2-2z" fill="#A8BF6F"/>
<path transform="translate(486,375)" d="m0 0 4 5 4 6v4h-2l-7-11z" fill="#38622C"/>
<path transform="translate(478,366)" d="m0 0h3l5 8v3l-3-1-5-8z" fill="#2D5924"/>
<path transform="translate(433,346)" d="m0 0h2l-2 4-8 8-3-1z" fill="#28500B"/>
<path transform="translate(453,326)" d="m0 0h2l-1 5-4 1v2h-2v2h-2l-1 2 1-5h2v-2h2l2-4z" fill="#4F712E"/>
<path transform="translate(344,413)" d="m0 0m-9 1h9v4l-10-1z" fill="#396227"/>
<path transform="translate(574,436)" d="m0 0 14 1 5 1v1l-13 1-1-2-5-1z" fill="#8DA28F"/>
<path transform="translate(448,326)" d="m0 0h5l-3 4h-12l1-2z" fill="#9EB760"/>
<path transform="translate(221,364)" d="m0 0h6v3h-12v-2z" fill="#5B8244"/>
<path transform="translate(503,403)" d="m0 0 3 1 3 5v3l-4-2-2-4z" fill="#345F38"/>
</svg>
